<?xml version="1.0" encoding="UTF-8" standalone="no"?>
<svg width="210px" height="204px" viewBox="0 0 210 204" version="1.1" xmlns="http://www.w3.org/2000/svg" xmlns:xlink="http://www.w3.org/1999/xlink">
    <!-- Generator: Sketch 46.1 (44463) - http://www.bohemiancoding.com/sketch -->
    <title>superhero</title>
    <desc>Created with Sketch.</desc>
    <defs>
        <rect id="path-1" x="122.648508" y="62.045627" width="12" height="21" rx="6"></rect>
        <rect id="path-2" x="86.6168849" y="73.4980469" width="12" height="21" rx="6"></rect>
        <path d="M93.9031902,77.3815222 C94.6624178,73.027599 98.8630489,69.4980469 103.287042,69.4980469 L119.335781,69.4980469 C123.759111,69.4980469 127.812217,73.0499162 128.388332,77.4289813 L131.974982,104.6912 L133.701795,117.816752 C134.278006,122.196546 131.214554,125.100108 126.873555,124.304638 L94.8666787,118.439503 C90.5193353,117.642869 87.6109048,113.465729 88.3698204,109.113595 L93.9031902,77.3815222 Z" id="path-3"></path>
        <rect id="path-4" x="95.5630373" y="135.998047" width="11" height="34.3870627" rx="5.5"></rect>
        <rect id="path-5" x="92.4897039" y="135.998047" width="17.5" height="27.75" rx="8"></rect>
        <rect id="path-6" x="116.081503" y="135.998047" width="11" height="37.7119427" rx="5.5"></rect>
        <rect id="path-7" x="112.996094" y="135.998047" width="17.5" height="30.9131904" rx="8"></rect>
    </defs>
    <g id="Page-1" stroke="none" stroke-width="1" fill="none" fill-rule="evenodd">
        <g id="superhero">
            <path d="M105.122557,68.9980469 C105.122557,68.9980469 96.6584227,68.2985886 92.3725595,70.8730469 C83.9640333,75.9239313 72.4911306,81.2219151 71.4975586,83.6230473 C69.9975586,87.2480473 76.8725588,100.748046 76.8725588,100.748046 L79.4975582,94.2480464 C79.4975582,94.2480464 75.9975588,87.132648 76.8725588,85.8730464 C77.7475588,84.6134448 105.122557,68.9980469 105.122557,68.9980469 Z" id="Path-702" stroke="#F37021" stroke-width="2" fill="#FFFFFF"></path>
            <path d="M132.623047,80.8730469 C132.623047,80.8730469 137.747803,90.5917969 137.747803,91.8730469 C137.747803,93.1542969 134.372803,99.8105469 133.560547,100.373047 C132.748291,100.935547 130.998047,99.4980469 130.998047,99.4980469 L132.372803,111.935547 C132.372803,111.935547 134.309326,109.373047 134.810547,108.623047 C135.311768,107.873047 135.275169,106.372953 135.275169,106.372953 C135.295382,105.82072 135.593476,105.019174 135.928508,104.594467 C135.928508,104.594467 144.747803,93.6230469 144.122803,91.6230469 C143.497803,89.6230469 136.810547,78.2480469 136.810547,78.2480469 L134.810547,76.8105469 L131.935547,78.8105469 L132.623047,80.8730469 Z" id="Path-701" stroke="#F37021" stroke-width="2" fill="#FFFFFF"></path>
            <path d="M87.1770161,157.983194 C87.1770161,157.983194 40.8167626,156.120168 58.1547436,167.670929 C75.4927246,179.221691 69.0852094,185.555979 98.1074824,180.339507 C127.129755,175.123034 127.129754,176.490302 145.975386,173.260007 C164.821018,170.029713 182.535911,167.298324 161.428804,161.709246 C140.321697,156.120168 87.1770161,157.983194 87.1770161,157.983194 Z" id="Path-98" stroke="#F37021" stroke-width="2" fill="#F5C39F"></path>
            <path d="M94.3710937,56.2480469 C94.3710937,56.2480469 94.8710937,57.4980469 91.1210937,56.8730469 C87.3710937,56.2480469 82.3710937,56.4980469 82.3710937,58.1230469 C82.3710937,59.7480469 80.871094,60.3730469 83.4960937,62.2480469 C86.1210935,64.1230469 87.1210938,65.1230469 87.1210938,65.1230469 C87.1210938,65.1230469 87.3710941,60.7480469 89.2460938,60.7480469 C91.1210934,60.7480469 95.3710938,57.6230469 95.3710938,57.6230469 L94.3710937,56.2480469 Z" id="Path-701" stroke="#F37021" fill="#F37021"></path>
            <path d="M93.0303298,54.2480469 C93.0303298,54.2480469 90.2720071,48.5778972 90.8706056,42.9980465 C91.3182161,38.8256344 99.3010045,32.9613274 100.370606,32.3730469 C102.870606,30.9980469 91.0274361,36.0273942 89.7803298,37.7480467 C88.5332236,39.4686991 88.3706055,39.9697507 88.3706055,44.3730468 C88.3706055,48.7763429 93.0303298,54.2480469 93.0303298,54.2480469 Z" id="Path-711" stroke="#F37021" fill="#F37021"></path>
            <g id="background" transform="translate(12.996094, 10.498047)">
                <g id="confetti-copy-2" transform="translate(0.369753, 0.023056)">
                    <g id="top-right" transform="translate(126.498047, 0.500000)">
                        <circle id="Oval-8-Copy" fill="#F37021" cx="25.1233482" cy="14.0625" r="2.8125"></circle>
                        <g id="plus" transform="translate(8.375000, 16.875000)" stroke="#F37021" stroke-width="1.875" stroke-linecap="round">
                            <path d="M5.40551742,0.9375 L5.40551742,10.4981616" id="Line"></path>
                            <path d="M10.278679,5.625 L0.718017424,5.625" id="Line-Copy-2"></path>
                        </g>
                        <g id="asterick---1" transform="translate(0.718017, 0.000000)" stroke="#F37021" stroke-width="1.875" stroke-linecap="round">
                            <path d="M5.16622985,0.9375 L5.16622985,10.4981616" id="Line-Copy-6"></path>
                            <path d="M10.0393915,5.625 L0.478729852,5.625" id="Line-Copy-5"></path>
                            <path d="M1.78602552,2.24479567 L8.54643418,9.00520433" id="Line-Copy-8"></path>
                            <path d="M8.63926499,2.24479567 L1.87885633,9.00520433" id="Line-Copy-7"></path>
                        </g>
                    </g>
                    <g id="bottom-right" transform="translate(35.498047, 36.062500)" stroke-linecap="round" stroke-width="1.875" stroke="#F37021">
                        <g id="plus">
                            <path d="M5.21985581,1.625 L5.21985581,11.1856616" id="Line-Copy-15"></path>
                            <path d="M10.0930174,6.3125 L0.53235581,6.3125" id="Line-Copy-12"></path>
                        </g>
                        <g id="asterick---2" transform="translate(11.093017, 11.937500)">
                            <path d="M5.16622985,0.9375 L5.16622985,10.4981616" id="Line-Copy-6"></path>
                            <path d="M10.0393915,5.625 L0.478729852,5.625" id="Line-Copy-5"></path>
                            <path d="M1.78602552,2.24479567 L8.54643418,9.00520433" id="Line-Copy-8"></path>
                            <path d="M8.63926499,2.24479567 L1.87885633,9.00520433" id="Line-Copy-7"></path>
                        </g>
                    </g>
                    <g id="top-left" transform="translate(0.310547, 21.625000)">
                        <circle id="Oval-8" fill="#F37021" cx="21.383804" cy="2.8125" r="2.8125"></circle>
                        <g id="plus" transform="translate(22.383804, 40.000000)" stroke="#F37021" stroke-width="1.875" stroke-linecap="round">
                            <path d="M5.55883789,0.9375 L5.55883789,10.4981616" id="Line-Copy-4"></path>
                            <path d="M10.4319995,5.625 L0.871337891,5.625" id="Line-Copy-3"></path>
                        </g>
                        <g id="asterick---3" transform="translate(0.621338, 7.500000)" stroke="#F37021" stroke-width="1.875" stroke-linecap="round">
                            <path d="M5.16622985,0.9375 L5.16622985,10.4981616" id="Line-Copy-6"></path>
                            <path d="M10.0393915,5.625 L0.478729852,5.625" id="Line-Copy-5"></path>
                            <path d="M1.78602552,2.24479567 L8.54643418,9.00520433" id="Line-Copy-8"></path>
                            <path d="M8.63926499,2.24479567 L1.87885633,9.00520433" id="Line-Copy-7"></path>
                        </g>
                    </g>
                </g>
            </g>
            <g id="Rectangle-54" transform="translate(128.648508, 72.545627) rotate(-41.000000) translate(-128.648508, -72.545627) ">
                <use fill="#F37021" fill-rule="evenodd" xlink:href="#path-1"></use>
                <rect stroke="#F37021" stroke-width="3" x="124.148508" y="63.545627" width="9" height="18" rx="4.5"></rect>
            </g>
            <g id="Rectangle-54-Copy" transform="translate(92.616885, 83.998047) rotate(30.000000) translate(-92.616885, -83.998047) ">
                <use fill="#FF6600" fill-rule="evenodd" xlink:href="#path-2"></use>
                <rect stroke="#FF6600" stroke-width="3" x="88.1168849" y="74.9980469" width="9" height="18" rx="4.5"></rect>
            </g>
            <g id="Rectangle-50-Copy">
                <use fill="#F37021" fill-rule="evenodd" xlink:href="#path-3"></use>
                <path stroke="#F37021" stroke-width="4" d="M95.8734589,77.7250933 L90.3400892,109.457166 C89.7696528,112.728433 91.960382,115.873634 95.2271684,116.47226 L127.234045,122.337394 C130.243219,122.888813 132.117709,121.109121 131.718882,118.077626 L126.405419,77.6898557 C125.960235,74.3060011 122.755435,71.4980469 119.335781,71.4980469 L103.287042,71.4980469 C99.8350159,71.4980469 96.4657,74.3287836 95.8734589,77.7250933 Z"></path>
            </g>
            <g id="Rectangle-55">
                <use fill="#F37021" fill-rule="evenodd" xlink:href="#path-4"></use>
                <rect stroke="#F37021" stroke-width="3" x="97.0630373" y="137.498047" width="8" height="31.3870627" rx="4"></rect>
            </g>
            <g id="Rectangle-55-Copy-2">
                <use fill="#F37021" fill-rule="evenodd" xlink:href="#path-5"></use>
                <rect stroke="#F37021" stroke-width="3" x="93.9897039" y="137.498047" width="14.5" height="24.75" rx="7.25"></rect>
            </g>
            <g id="Rectangle-55-Copy-5">
                <use fill="#F37021" fill-rule="evenodd" xlink:href="#path-6"></use>
                <rect stroke="#F37021" stroke-width="3" x="117.581503" y="137.498047" width="8" height="34.7119427" rx="4"></rect>
            </g>
            <g id="Rectangle-55-Copy-6">
                <use fill="#F37021" fill-rule="evenodd" xlink:href="#path-7"></use>
                <rect stroke="#F37021" stroke-width="3" x="114.496094" y="137.498047" width="14.5" height="27.9131904" rx="7.25"></rect>
            </g>
            <path d="M122.497066,64.9975586 C122.497066,64.9975586 119.747065,65.7470703 122.497065,67.9970703 C125.247065,70.2470703 131.247065,70.9970703 131.247065,72.7470703 C131.247065,74.4970703 125.74707,83.4990234 125.74707,99.4980469 C125.74707,115.49707 136.49707,118.998047 138.74707,131.248047 C139.77432,136.840852 136.971087,145.235142 138.74707,151.248047 C140.861048,158.405292 146.688808,162.161846 146.688808,162.161846 C147.135199,162.485596 147.067515,162.641106 146.529746,162.506996 C146.529746,162.506996 63.9970648,141.99707 61.2470648,138.74707 C58.4970648,135.49707 75.4970648,96.9970703 75.4970648,96.9970703 C75.4970648,96.9970703 85.9970632,72.4970703 98.2470648,70.2470703 C110.497066,67.9970703 101.221577,66.3725586 101.221577,66.3725586 C101.221577,66.3725586 110.497063,70.7470703 112.747065,70.7470703 C114.997066,70.7470703 122.497066,64.9975586 122.497066,64.9975586 Z" id="Path-693" stroke="#F37021" stroke-width="3" fill="#F5C39F"></path>
            <path d="M110.745849,64.4353027 C113.584039,64.8805091 117.074666,63.9110566 120.443098,61.4980469 C123.093948,59.5990837 124.501516,56.2857336 125.063348,54.6230469 C125.154285,54.3539286 124.250848,49.7480469 126.625848,48.9355469 C129.000848,48.1230469 128.500848,46.6855469 128.125848,46.3105469 C127.750848,45.9355469 127.314765,46.1201915 126.625848,45.8105469 C126.194185,45.6165295 126.039191,45.1392274 125.625848,44.5605469 C125.146867,43.8899731 123.386214,41.7284056 122.375846,40.6855469 C121.766257,40.056355 120.443097,38.6783779 120.443097,38.6783779 L111.751091,29.4980469 C111.751091,29.4980469 97.7892526,31.6771384 93.126091,37.7480469 C88.4629295,43.8189553 107.55835,63.9353027 110.745849,64.4353027 Z" id="Path-697" stroke="#F37021" stroke-width="1.5" fill="#FFFFFF"></path>
            <path d="M77.8706055,96.1230469 C77.8706055,96.1230469 73.3140624,106.412424 71.4956055,111.498047 C70.9498929,113.024225 71.136001,115.582062 70.4958496,117.497803 C70.0683064,118.777284 68.462908,119.426323 67.9956055,120.748047 C67.51185,122.116307 67.8037563,124.258256 67.3706055,125.623047 C67.0148628,126.743937 65.2204135,127.725491 64.8706055,128.748047 C63.1765229,133.700173 63.1210938,137.372559 63.1210938,137.372559 L65.8710938,138.872559 L77.8706055,96.1230469 Z" id="Path-701" fill="#FFFFFF"></path>
            <path d="M80.2456055,103.497559 C79.6206055,107.747559 77.9956055,110.247559 77.9956055,116.247559 C77.9956055,122.247559 80.6206055,128.872559 80.6206055,131.372559 C80.6206055,133.872559 79.9956055,136.497559 81.4956055,140.247559 C82.9956055,143.997559 84.1853027,144.685548 84.1853027,144.685548 L95.9978027,147.873048 L92.2456055,138.372559 C92.2456055,138.372559 92.2456055,134.872559 90.2456055,123.872559 C88.2456055,112.872559 80.8706055,99.2475586 80.2456055,103.497559 Z" id="Path-703" fill="#FFFFFF"></path>
            <path d="M85.1206055,93.6225586 C85.1206055,93.6225586 100.245605,129.622559 100.745605,131.122559 C101.245605,132.622559 99.8706055,144.122559 99.8706055,145.372559 C99.8706055,146.622559 99.1228027,148.810547 99.1228027,148.810547 L115.185303,152.998047 C115.185303,152.998047 116.620605,144.497559 114.245605,139.497559 C111.870605,134.497559 110.620605,133.372559 108.245605,134.122559 C105.870605,134.872559 105.620605,132.997559 107.245605,131.747559 C108.870605,130.497559 110.870605,129.747559 110.870605,129.747559 L104.870605,128.247559 C104.870605,128.247559 107.120605,125.747559 105.995605,123.622559 C104.870605,121.497559 90.3706055,99.4975586 90.3706055,99.4975586 L85.1206055,93.6225586 Z" id="Path-704" fill="#FFFFFF"></path>
            <path d="M124.745605,120.372559 C123.484456,118.516867 118.996094,115.872559 118.996094,115.872559 L130.495605,141.997559 L127.870605,130.122559 C127.870605,130.122559 126.401123,122.808534 124.745605,120.372559 Z" id="Path-705" fill="#FFFFFF"></path>
            <path d="M108.51573,73.4269413 C108.51573,73.4269413 103.475362,74.5896813 104.100362,78.7146813 C104.725361,82.8396813 101.475362,95.5896813 103.100362,95.5896813 C104.725361,95.5896813 111.225362,82.3396813 109.225362,80.0896813 C107.225361,77.8396813 108.51573,73.4269413 108.51573,73.4269413 Z" id="Path-706" fill="#FFFFFF" transform="translate(106.122018, 84.508311) rotate(-23.000000) translate(-106.122018, -84.508311) "></path>
            <path d="M111.161924,78.0297801 C112.912412,78.9047801 115.161924,82.0297801 115.161924,82.0297801 L112.286924,71.9047801 C112.286924,71.9047801 112.161924,73.3422801 111.161924,75.1547801 C110.161924,76.9672801 109.411436,77.1547801 111.161924,78.0297801 Z" id="Path-707" fill="#FFFFFF" transform="translate(112.636939, 76.967280) rotate(-11.000000) translate(-112.636939, -76.967280) "></path>
            <path d="M116.325813,70.8720703 C116.325813,70.8720703 121.825813,79.8720703 120.950813,86.6220703 C120.075813,93.3720703 121.575813,95.1220703 121.575813,95.1220703 L122.950813,76.3720703 L116.325813,70.8720703 Z" id="Path-708" fill="#FFFFFF"></path>
            <path d="M82.9951172,91.9970703 C82.9951172,91.9970703 90.7460938,93.9960938 102.871094,96.7470703 C114.996094,99.4980469 121.995117,96.7470703 121.995117,96.7470703 C121.995117,96.7470703 119.509721,105.956539 118.996094,112.12207 C118.510046,117.956539 118.996094,132.74707 118.996094,132.74707 C118.996094,132.74707 111.246094,114.99707 102.871094,106.74707 C94.4960938,98.4970703 82.9951172,91.9970703 82.9951172,91.9970703 Z" id="Path-695" fill="#F37021"></path>
            <polygon id="Path-696" fill="#FFFFFF" points="114.277222 104.185425 110.902222 104.685425 114.277222 105.279175 114.027222 114.747925 115.339722 105.435425 118.464722 105.279175 115.464722 104.310425 115.183472 100.154175"></polygon>
            <path d="M129.622803,72.3728029 C129.478661,70.0962564 128.253135,67.6826032 126.370606,66.9980469 C122.245606,65.4980468 118.372803,69.8105468 118.372803,69.8105468 C118.372803,69.8105468 122.737279,69.9468903 124.381548,71.6039514 C126.653023,73.893098 126.572242,76.8843617 127.560303,77.2478029 C128.604908,77.6320429 129.794504,75.0846255 129.622803,72.3728029 Z" id="Path-709" fill="#FFFFFF"></path>
            <path d="M115.620605,130.623047 C115.620605,130.623047 118.620605,135.373047 119.495605,137.998047 C120.370605,140.623047 119.745605,142.998047 119.745605,142.998047 C119.745605,142.998047 121.870605,144.248047 122.370605,144.248047 C122.870605,144.248047 121.745605,145.498047 121.745605,146.248047 C121.745605,146.998047 121.120605,149.498047 123.995605,149.498047 C126.870605,149.498047 128.995605,151.748047 128.995605,152.498047 C128.995605,153.248047 132.748047,157.372803 132.748047,157.372803 C132.748047,157.372803 123.370605,139.748047 123.370605,138.873047 C123.370605,137.998047 115.620605,130.623047 115.620605,130.623047 Z" id="Path-710" fill="#FFFFFF"></path>
            <path d="M91.7456052,74.6225588 C88.5209542,76.9182023 83.138962,84.6529143 83.6206055,85.7475586 C84.9956055,88.8725586 85.4343421,90.4691746 86.1843421,91.4691746 C86.9343421,92.4691746 86.1843421,82.8441746 86.1843421,82.8441746 C86.1843421,82.8441746 89.1843421,87.5941746 90.3093421,90.3441746 C91.4343421,93.0941746 90.3093419,80.2191746 90.3093419,80.2191746 L97.2456052,80.2191744 L95.3093424,77.4691746 L101.559341,72.2191746 L104.745606,70.1225586 C104.745606,70.1225586 97.7267161,70.3645794 91.7456052,74.6225588 Z" id="Path-710" fill="#FFFFFF"></path>
            <path d="M118.873047,34.5603029 C119.807617,31.060547 117.186755,28.5356768 111.433349,28.8730469 C104.426511,29.2839161 94.3625093,34.8630161 91.6206055,39.3730469 C87.4598547,46.2168734 93.6179791,57.4543163 95.1366578,59.1699228 C98.4779026,62.9444284 104.245117,64.2480469 104.245117,64.2480469 L110.558349,64.6230478 L107.620849,60.1855469 C107.620849,60.1855469 108.091368,57.9041757 105.091797,57.9041757 C102.092226,57.9041757 101.060547,55.1229257 102.029297,53.4041757 C102.998047,51.6854257 105.365114,53.1522162 105.365115,52.2480469 C105.365115,49.4980469 105.245849,44.8730469 107.620849,42.6230469 C109.995849,40.3730469 117.938477,38.0600588 118.873047,34.5603029 Z" id="Path-710" stroke="#F37021" fill="#F37021"></path>
            <path d="M88.4333496,47.4980467 C88.4333496,47.4980467 95.2506812,50.5956042 101.998047,50.8103024 C104.636349,50.8942521 110.257327,50.3876851 112.435547,49.9353024 C114.355218,49.5366164 111.865282,42.9341555 114.74585,41.2480468 C118.284578,39.1766905 124.121094,40.7480469 124.121094,40.7480469 L125.871094,43.1230469 C125.871094,43.1230469 125.607547,48.9814289 121.62085,51.3105467 C120.644843,51.8807516 117.810547,53.3728024 113.998047,52.4353024 C113.677971,52.3565952 112.944872,50.2367563 112.623047,50.1854245 C112.459253,50.1592991 114.160699,52.4466055 113.998047,52.4353024 C110.673651,52.2042839 105.697252,52.6201838 101.748047,52.4353024 C95.0495278,52.1217125 89.1230469,49.4353024 89.1230469,49.4353024 L88.4333496,47.4980467 Z" id="Path-699" stroke="#F37021" fill="#F5C39F"></path>
            <path d="M116.30835,49.8105469 C116.30835,49.8105469 116.30835,47.248047 116.30835,44.4980469 C116.30835,41.7480469 123.37085,42.9980469 123.37085,42.9980469 C123.37085,42.9980469 123.37085,47.1855469 121.12085,48.0605469 C118.87085,48.9355469 116.30835,49.8105469 116.30835,49.8105469 Z" id="Path-700" stroke="#FF6600" fill="#FFFFFF"></path>
            <path d="M118.839844,46.1855469 C119.305834,46.1855469 119.683594,45.8077871 119.683594,45.3417969 C119.683594,44.8758066 119.305834,44.4980469 118.839844,44.4980469 C118.373853,44.4980469 117.996094,44.8758066 117.996094,45.3417969 C117.996094,45.8077871 118.373853,46.1855469 118.839844,46.1855469 Z" id="Oval-206" stroke="#FF6600" fill="#FF6600"></path>
            <path d="M125.058349,52.4355469 C125.058349,52.4355469 124.527222,54.9753571 123.277222,54.4042969 C122.027222,53.8332367 123.027222,55.7480469 123.027222,55.7480469 L123.853436,56.6855469 L125.058349,52.4355469 Z" id="Path-712" stroke="#F37021" fill="#FAC285"></path>
            <polygon id="Path-701" points="93.5429077 58.0449219 94.8710327 57.5292969 96.6991577 59.5292969 94.7304077 59.9511719"></polygon>
            <path d="M104.996094,64.3725586 C104.996094,64.3725586 106.621094,67.3725586 106.621094,68.1225586" id="Path-700" stroke="#F37021" stroke-width="1.5"></path>
            <path d="M116.745605,63.9975586 L118.120605,67.1225586" id="Path-701" stroke="#F37021" stroke-width="1.5"></path>
            <path d="M102.497559,170.248047 C102.497559,170.248047 107.900657,168.390433 109.497559,167.498047 C110.233267,167.086916 112.860869,165.152397 112.747803,163.748047 C112.67085,162.792247 110.140678,162.222391 109.497559,161.998047 C107.90951,161.444076 105.997803,162.998047 105.997803,162.998047 L103.497559,165.498047 L102.497559,170.248047 Z" id="Path-699" fill="#F37021"></path>
            <path d="M123.122803,173.185547 C123.122803,173.185547 124.065198,173.138573 124.810303,172.748047 C125.409132,172.434188 129.951619,170.315832 131.247559,168.248047 C131.850319,167.28629 131.545177,166.269871 131.247559,165.873047 C130.310059,164.623047 123.808472,166.45999 123.808472,166.45999 L121.308228,168.95999 L123.122803,173.185547 Z" id="Path-699-Copy" fill="#F37021"></path>
            <path d="M106.122018,64.8100586 L107.372018,67.6850586 L112.872018,69.6850586 L117.247018,66.9350586 L116.497018,64.5600586 C116.497018,64.5600586 113.747018,65.1850586 111.622018,65.1850586 C109.497018,65.1850586 106.122018,64.8100586 106.122018,64.8100586 Z" id="Path-701" fill="#FFFFFF"></path>
            <path d="M106.076111,64.8417969 L107.498047,68.0605469 C107.498047,68.0605469 109.201144,68.4302334 110.122803,68.7480469 C111.013644,69.0552334 112.997803,69.7480469 112.997803,69.7480469 L110.747559,66.9980469 L108.997559,65.8730469 L108.685486,64.9824219 L106.076111,64.8417969 Z" id="Path-700" fill="#F5C39F"></path>
            <path d="" id="Path-367" stroke="#979797"></path>
            <path d="" id="Path-372" stroke="#979797"></path>
        </g>
    </g>
</svg>